<svg id="visual" viewBox="0 0 900 300" width="900" height="300" xmlns="http://www.w3.org/2000/svg" xmlns:xlink="http://www.w3.org/1999/xlink" version="1.1"><rect x="0" y="0" width="900" height="300" fill="#2f2f2f"></rect><path d="M0 178L21.5 183.3C43 188.7 86 199.3 128.8 203.7C171.7 208 214.3 206 257.2 207.5C300 209 343 214 385.8 217.3C428.7 220.7 471.3 222.3 514.2 216.7C557 211 600 198 642.8 193.5C685.7 189 728.3 193 771.2 191.5C814 190 857 183 878.5 179.5L900 176L900 301L878.5 301C857 301 814 301 771.2 301C728.3 301 685.7 301 642.8 301C600 301 557 301 514.2 301C471.3 301 428.7 301 385.8 301C343 301 300 301 257.2 301C214.3 301 171.7 301 128.8 301C86 301 43 301 21.5 301L0 301Z" fill="#ff655a"></path><path d="M0 208L21.5 211.2C43 214.3 86 220.7 128.8 219.3C171.7 218 214.3 209 257.2 205C300 201 343 202 385.8 203.3C428.7 204.7 471.3 206.3 514.2 210.7C557 215 600 222 642.8 222C685.7 222 728.3 215 771.2 211.7C814 208.3 857 208.7 878.5 208.8L900 209L900 301L878.5 301C857 301 814 301 771.2 301C728.3 301 685.7 301 642.8 301C600 301 557 301 514.2 301C471.3 301 428.7 301 385.8 301C343 301 300 301 257.2 301C214.3 301 171.7 301 128.8 301C86 301 43 301 21.5 301L0 301Z" fill="#ff565c"></path><path d="M0 247L21.5 243.5C43 240 86 233 128.8 228.2C171.7 223.3 214.3 220.7 257.2 222.2C300 223.7 343 229.3 385.8 229.5C428.7 229.7 471.3 224.3 514.2 226.5C557 228.7 600 238.3 642.8 244.2C685.7 250 728.3 252 771.2 248.8C814 245.7 857 237.3 878.5 233.2L900 229L900 301L878.5 301C857 301 814 301 771.2 301C728.3 301 685.7 301 642.8 301C600 301 557 301 514.2 301C471.3 301 428.7 301 385.8 301C343 301 300 301 257.2 301C214.3 301 171.7 301 128.8 301C86 301 43 301 21.5 301L0 301Z" fill="#ff445f"></path><path d="M0 260L21.5 258.5C43 257 86 254 128.8 253.3C171.7 252.7 214.3 254.3 257.2 256C300 257.7 343 259.3 385.8 260.3C428.7 261.3 471.3 261.7 514.2 258.5C557 255.3 600 248.7 642.8 250C685.7 251.3 728.3 260.7 771.2 262.8C814 265 857 260 878.5 257.5L900 255L900 301L878.5 301C857 301 814 301 771.2 301C728.3 301 685.7 301 642.8 301C600 301 557 301 514.2 301C471.3 301 428.7 301 385.8 301C343 301 300 301 257.2 301C214.3 301 171.7 301 128.8 301C86 301 43 301 21.5 301L0 301Z" fill="#ff2e64"></path><path d="M0 285L21.5 283.2C43 281.3 86 277.7 128.8 275.2C171.7 272.7 214.3 271.3 257.2 271.5C300 271.7 343 273.3 385.8 273.8C428.7 274.3 471.3 273.7 514.2 274C557 274.3 600 275.7 642.8 274C685.7 272.3 728.3 267.7 771.2 268.3C814 269 857 275 878.5 278L900 281L900 301L878.5 301C857 301 814 301 771.2 301C728.3 301 685.7 301 642.8 301C600 301 557 301 514.2 301C471.3 301 428.7 301 385.8 301C343 301 300 301 257.2 301C214.3 301 171.7 301 128.8 301C86 301 43 301 21.5 301L0 301Z" fill="#ff006a"></path></svg>